<svg width="123.9" height="123.9" xmlns="http://www.w3.org/2000/svg" version="1.1" enable-background="new 0 0 123.9 123.9">

 <g>
  <title>Layer 1</title>
  <path stroke="null" id="svg_1" fill="#494547" d="m62,0c-34.33846,0 -62,27.66154 -62,62s27.66154,62 62,62s62,-27.66154 62,-62s-27.66154,-62 -62,-62z" class="st0"/>
  <path stroke="null" id="svg_2" fill="#FFFFFF" d="m85.47559,70.98437c-3.26311,11.57134 -6.52622,23.14267 -9.57179,34.71401c-1.0877,3.7784 -3.48065,5.90374 -6.74376,6.61219c-1.0877,0.23615 -2.39295,0.23615 -3.48065,-0.23615c-10.87704,-3.54225 -21.75407,-7.08449 -32.63111,-10.86289c-2.17541,-0.70845 -3.69819,-2.3615 -4.7859,-4.48684c-0.87016,-1.8892 -1.30524,-3.7784 -0.87016,-5.66759c0,-0.4723 0.21754,-0.9446 0.21754,-1.18075c6.52622,-23.14267 13.05244,-46.52149 19.36112,-69.66416c1.30524,-4.48684 5.22098,-6.61219 8.04901,-6.61219c0.87016,0 1.52278,0.23615 2.39295,0.4723c5.22098,1.65305 10.44195,3.3061 15.66293,5.19529c5.43852,1.8892 11.09458,3.54225 16.53309,5.43144c3.48065,1.18075 5.8736,4.25069 6.09114,8.26524c0,1.18075 0,2.3615 -0.43508,3.54225c-3.26311,11.33519 -6.52622,22.90652 -9.78933,34.47786zm-42.2029,-13.93283c-2.17541,7.79294 -4.35081,15.34973 -6.52622,23.14267c0,0.23615 -0.21754,0.70845 -0.21754,0.9446c-0.21754,1.18075 0.21754,2.3615 1.30524,2.8338c10.65949,3.54225 21.53653,7.08449 32.19602,10.62674c0.43508,0.23615 0.87016,0.23615 1.30524,0c0.65262,-0.23615 1.0877,-0.9446 1.30524,-1.65305c4.35081,-15.82203 8.91917,-31.88021 13.26998,-47.70224l0,-1.4169c-0.21754,-0.9446 -0.87016,-1.4169 -1.52278,-1.65305c-10.65949,-3.54225 -21.10145,-6.84834 -31.76094,-10.39059l-1.0877,0c-0.87016,0.23615 -1.30524,0.70845 -1.74033,1.65305c-1.95787,7.79294 -4.35081,15.82203 -6.52622,23.61497zm3.48065,39.20085c-0.87016,3.06995 0.65262,6.13989 3.48065,7.08449s5.65606,-0.70845 6.52622,-3.7784s-0.65262,-6.13989 -3.48065,-7.08449s-5.8736,0.70845 -6.52622,3.7784zm23.71194,-65.88577c1.52278,0.4723 3.26311,0.9446 4.7859,1.65305c0.21754,0 0.43508,0 0.43508,0.23615c0.43508,0 0.65262,0 0.87016,-0.4723c0.43508,-0.9446 0.21754,-1.4169 -0.65262,-1.8892l-0.21754,0c-3.26311,-0.9446 -6.30868,-2.12535 -9.57179,-3.06995c-0.21754,0 -0.43508,0 -0.65262,-0.23615c-0.43508,0 -0.65262,0 -0.87016,0.4723c-0.43508,0.9446 -0.21754,1.65305 0.65262,1.8892l0.21754,0c1.95787,0.23615 3.48065,0.9446 5.00344,1.4169z" class="st1"/>
 </g>
</svg>